<svg viewBox="0 0 600 500"
  xmlns="http://www.w3.org/2000/svg">

  <style type="text/css" >
    <![CDATA[
        text {
           text-anchor: Middle;
           font-family: courier;
        }
    ]]>
  </style>

<!--
	RAIN-SPRINKLER TABLE
-->
<g id="rain_sprinkler_table" transform="translate(25,0)">
  <!-- background fill color -->
  <rect x="50" y="0" width="100" height="60"
        style="fill: rgb(232,231,235); stroke: none;"/>
  <rect x="0" y="30" width="50" height="90"
        style="fill: rgb(237,241,184); stroke: none;"/>

  <text x="105" y="20">Sprinkler</text>
  <!-- row 1 -->
  <text x="20"  y="50">Rain</text>
  <text x="75"  y="50">On</text>
  <text x="125" y="50">Off</text>
  <!-- row 2 -->
  <text x="20"  y="80">Yes</text>
  <text x="75"  y="80">0.01</text>
  <text x="125" y="80">0.99</text>
  <!-- row 3 -->
  <text x="20"  y="110">No</text>
  <text x="75"  y="110">0.4</text>
  <text x="125" y="110">0.6</text>

  <!-- lines -->
  <line x1="0" y1="60" x2="150" y2="60"
        style="stroke: black; stroke-width:1;"/>
  <line x1="50" y1="10" x2="50" y2="120"
        style="stroke: black; stroke-width:1;"/>
</g>

<!--
	RAIN TABLE
-->
<g id="rain__table" transform="translate(450,0)">
  <!-- background fill color -->
  <rect x="10" y="0" width="90" height="60"
        style="fill: rgb(237,241,184); stroke: none;"/>

  <text x="55" y="20">Rain</text>
  <!-- row 1 -->
  <text x="35"  y="50">Yes</text>
  <text x="75" y="50">No</text>
  <!-- row 2 -->
  <text x="35"  y="80">0.2</text>
  <text x="75" y="80">0.8</text>

  <!-- lines -->
  <line x1="0" y1="60" x2="100" y2="60"
        style="stroke: black; stroke-width:1;"/>
  <line x1="10" y1="10" x2="10" y2="90"
        style="stroke: black; stroke-width:1;"/>
</g>

<!--
	GRASS TABLE
-->
<g id="rain_sprinkler_table" transform="translate(25, 275)">
  <!-- background fill color -->
  <rect x="150" y="0" width="100" height="60"
        style="fill: rgb(241,223,184); stroke: none;"/>
  <rect x="0" y="30" width="100" height="150"
        style="fill: rgb(232,231,235); stroke: none;"/>
  <rect x="100" y="30" width="50" height="150"
        style="fill: rgb(237,241,184); stroke: none;"/>

  <text x="205" y="20">Grass wet</text>
  <!-- row 1 -->
  <text x="50"  y="50">Sprinkler</text>
  <text x="125"  y="50">Rain</text>
  <text x="175" y="50">Yes</text>
  <text x="230" y="50">No</text>
  <!-- row 2 -->
  <text x="50"  y="80">Off</text>
  <text x="125"  y="80">No</text>
  <text x="175" y="80">0.0</text>
  <text x="230" y="80">1.0</text>
  <!-- row 3 -->
  <text x="50"  y="110">Off</text>
  <text x="125"  y="110">Yes</text>
  <text x="175" y="110">0.8</text>
  <text x="230" y="110">0.2</text>
  <!-- row 4 -->
  <text x="50"  y="140">On</text>
  <text x="125"  y="140">No</text>
  <text x="175" y="140">0.9</text>
  <text x="230" y="140">0.1</text>
  <!-- row 5 -->
  <text x="50"  y="170">On</text>
  <text x="125"  y="170">Yes</text>
  <text x="175" y="170">0.99</text>
  <text x="230" y="170">0.01</text>

  <!-- lines -->
  <line x1="0" y1="60" x2="250" y2="60"
        style="stroke: black; stroke-width:1;"/>
  <line x1="150" y1="10" x2="150" y2="180"
        style="stroke: black; stroke-width:1;"/>
</g>

<g id="sprinkler" transform="translate(125, 175)">
  <ellipse cx="0" cy="0" rx="50" ry="30"
           style="stroke: black; stroke-width: 1; fill: rgb(232,231,235);"/>
  <text x="0" y="5">Sprinkler</text>
</g>

<g id="rain" transform="translate(350, 50)">
  <ellipse cx="0" cy="0" rx="50" ry="30"
           style="stroke: black; stroke-width: 1; fill: rgb(237,241,184);"/>
  <text x="0" y="5">Rain</text>
</g>

<g id="grass" transform="translate(350, 250)">
  <ellipse cx="0" cy="0" rx="50" ry="30"
           style="stroke: black; stroke-width: 1; fill: rgb(241,223,184);"/>
  <text x="0" y="5">Grass wet</text>
</g>

<!-- DEFINE ARROW MARKER -->
<marker id="triangle"
  viewBox="0 0 10 10" refX="0" refY="5" 
  markerUnits="strokeWidth"
  markerWidth="4"
  markerHeight="3"
  orient="auto">
  <path d="M 0 0 L 10 5 L 0 10 z" />
</marker>

<!-- RAIN to SPRINKLER -->
<line x1="308" y1="67"  x2="177" y2="148" marker-end="url(#triangle)"
  stroke="black" stroke-width="5"/>

<!-- RAIN TO GRASS -->
<line x1="350" y1="80"  x2="350" y2="205" marker-end="url(#triangle)"
  stroke="black" stroke-width="5"/>

<!-- SPRINKLER TO GRASS -->
<line x1="173" y1="185"  x2="287" y2="237" marker-end="url(#triangle)"
  stroke="black" stroke-width="5"/>

</svg>
